# xmcd
#
# Track frame offsets:
# 150
# 17830
# 32865
# 49587
# 61500
# 71482
# 85087
# 99287
# 113847
# 127767
# 140992
# 159955
# 173077
# 183477
#
# Disc length: 2599 seconds
#
#
# Revision: 2
# Processed by: cddbd v1.5.2PL0 Copyright (c) Steve Scherf et al.
# Submitted via: FreeRIP 2.96 
#
DISCID=ad0a250e
DTITLE=Chitãozinho and Xororo - Bis Chitãozinho and Xororo CD 1
DYEAR=1900
DGENRE=Sertanejo
TTITLE0=Amor Proibido
TTITLE1=Uma Casa de Cabloco
TTITLE2=Fogão de Lenha
TTITLE3=Revivendo
TTITLE4=Daria Tudo pra Você Ficar Comigo
TTITLE5=O Direito de Amar
TTITLE6=Metade de Alguem
TTITLE7=Galopeira
TTITLE8=Debaixo do Cobertor
TTITLE9=Gosto Amargo
TTITLE10=Eu te Encontrei
TTITLE11=Fio de Cabelo
TTITLE12=Ciranda do Amor
TTITLE13=Baile do Adeus
EXTD=
EXTT0=
EXTT1=
EXTT2=
EXTT3=
EXTT4=
EXTT5=
EXTT6=
EXTT7=
EXTT8=
EXTT9=
EXTT10=
EXTT11=
EXTT12=
EXTT13=
PLAYORDER=
